<svg width="96" height="32" viewBox="0 0 96 32" fill="none" xmlns="http://www.w3.org/2000/svg">
<path d="M80.0087 13.3078H84.0408C84.9667 13.3078 85.7207 12.5538 85.7207 11.6278C85.7207 10.7017 84.9667 9.94775 84.0408 9.94775H80.0416C76.6733 9.94775 73.8625 12.6194 73.8131 15.9876C73.764 19.4132 76.5341 22.2241 79.9515 22.2241H81.8036C83.967 22.2241 85.729 20.4703 85.729 18.2986V17.0038C85.729 16.0777 84.975 15.3238 84.0489 15.3238C83.1229 15.3238 82.369 16.0777 82.369 17.0038V18.8641H79.9596C78.4436 18.8641 77.2059 17.643 77.1815 16.1351C77.1404 14.578 78.4517 13.3078 80.0087 13.3078Z" fill="#333333"/>
<path d="M49.8665 22.2341C48.9406 22.2341 48.1866 21.4801 48.1866 20.5541V15.9239C48.1866 14.5307 47.1048 13.3342 45.7118 13.285C44.2447 13.2276 43.0319 14.4077 43.0319 15.8583V20.5459C43.0319 21.472 42.278 22.2259 41.3518 22.2259C40.4258 22.2259 39.6719 21.472 39.6719 20.5459V15.9566C39.6719 12.6949 42.2616 9.97416 45.5151 9.92498C48.8341 9.87583 51.5467 12.5556 51.5467 15.8665V20.5541C51.5467 21.4801 50.7927 22.2341 49.8665 22.2341Z" fill="#333333"/>
<path d="M70.2574 22.2341C69.3312 22.2341 68.5773 21.4801 68.5773 20.5541V15.9239C68.5773 14.5307 67.4955 13.3342 66.1024 13.285C64.6355 13.2276 63.4225 14.4077 63.4225 15.8583V20.5459C63.4225 21.472 62.6686 22.2259 61.7426 22.2259C60.8164 22.2259 60.0625 21.472 60.0625 20.5459V15.9566C60.0625 12.6949 62.6522 9.97416 65.9057 9.92498C69.2247 9.87583 71.9373 12.5556 71.9373 15.8665V20.5541C71.9456 21.4801 71.1917 22.2341 70.2574 22.2341Z" fill="#333333"/>
<path d="M9.75223 9.9165H1.68001C0.753954 9.9165 0 10.6705 0 11.5965C0 12.5226 0.753954 13.2765 1.68001 13.2765H4.03202V20.562C4.03202 21.4881 4.78597 22.242 5.71203 22.242C6.63808 22.242 7.39202 21.4881 7.39202 20.562V13.2765H9.75223C10.6783 13.2765 11.4322 12.5226 11.4322 11.5965C11.4322 10.6705 10.6783 9.9165 9.75223 9.9165Z" fill="#333333"/>
<path d="M18.6042 22.242C15.2032 22.242 12.4414 19.4803 12.4414 16.0793C12.4414 12.6783 15.2032 9.9165 18.6042 9.9165C22.0051 9.9165 24.7669 12.6783 24.7669 16.0793C24.7669 19.4803 22.0051 22.242 18.6042 22.242ZM18.6042 13.2765C17.0635 13.2765 15.8014 14.5304 15.8014 16.0793C15.8014 17.6282 17.0553 18.882 18.6042 18.882C20.1531 18.882 21.4069 17.6282 21.4069 16.0793C21.4069 14.5304 20.1448 13.2765 18.6042 13.2765Z" fill="#333333"/>
<path d="M32.0532 22.242C28.6523 22.242 25.8906 19.4803 25.8906 16.0793C25.8906 12.6783 28.6523 9.9165 32.0532 9.9165C35.4542 9.9165 38.2159 12.6783 38.2159 16.0793C38.2159 19.4803 35.4462 22.242 32.0532 22.242ZM32.0532 13.2765C30.5125 13.2765 29.2504 14.5304 29.2504 16.0793C29.2504 17.6282 30.5045 18.882 32.0532 18.882C33.594 18.882 34.8559 17.6282 34.8559 16.0793C34.8559 14.5304 33.594 13.2765 32.0532 13.2765Z" fill="#333333"/>
<path d="M55.6955 22.242C54.7696 22.242 54.0156 21.4881 54.0156 20.562V11.5965C54.0156 10.6705 54.7696 9.9165 55.6955 9.9165C56.6215 9.9165 57.3754 10.6705 57.3754 11.5965V20.562C57.3754 21.4881 56.6215 22.242 55.6955 22.242Z" fill="#333333"/>
<path d="M25.1043 29.7456C22.3016 29.7456 19.5972 28.8851 17.3353 27.2953C16.5076 26.7134 16.3929 25.5251 17.0895 24.7793C17.655 24.1729 18.5892 24.0664 19.2694 24.5417C20.974 25.73 22.9982 26.3774 25.1043 26.3774C27.2104 26.3774 29.2429 25.73 30.9394 24.5417C31.6195 24.0664 32.5538 24.1729 33.1191 24.7793C33.8076 25.5251 33.7011 26.7134 32.8733 27.2953C30.6115 28.8851 27.907 29.7456 25.1043 29.7456Z" fill="#333333"/>
</svg>
